<svg xmlns="http://www.w3.org/2000/svg" width="24" height="24">
<rect fill="#E0AC69" x="8" y="16" width="1" height="1" />
<rect fill="#E0AC69" x="9" y="16" width="1" height="1" />
<rect fill="#E0AC69" x="10" y="16" width="1" height="1" />
<rect fill="#E0AC69" x="11" y="16" width="1" height="1" />
<rect fill="#E0AC69" x="12" y="16" width="1" height="1" />
<rect fill="#E0AC69" x="13" y="16" width="1" height="1" />
<rect fill="#E0AC69" x="14" y="16" width="1" height="1" />
<rect fill="#E0AC69" x="15" y="16" width="1" height="1" />
<rect fill="#E0AC69" x="16" y="16" width="1" height="1" />
<rect fill="#E0AC69" x="7" y="15" width="1" height="1" />
<rect fill="#E0AC69" x="8" y="15" width="1" height="1" />
<rect fill="#E0AC69" x="9" y="15" width="1" height="1" />
<rect fill="#E0AC69" x="10" y="15" width="1" height="1" />
<rect fill="#E0AC69" x="11" y="15" width="1" height="1" />
<rect fill="#E0AC69" x="12" y="15" width="1" height="1" />
<rect fill="#E0AC69" x="13" y="15" width="1" height="1" />
<rect fill="#E0AC69" x="14" y="15" width="1" height="1" />
<rect fill="#E0AC69" x="15" y="15" width="1" height="1" />
<rect fill="#E0AC69" x="16" y="15" width="1" height="1" />
<rect fill="#E0AC69" x="17" y="15" width="1" height="1" />
<rect fill="#E0AC69" x="6" y="14" width="1" height="1" />
<rect fill="#E0AC69" x="7" y="14" width="1" height="1" />
<rect fill="#E0AC69" x="8" y="14" width="1" height="1" />
<rect fill="#E0AC69" x="9" y="14" width="1" height="1" />
<rect fill="#E0AC69" x="10" y="14" width="1" height="1" />
<rect fill="#E0AC69" x="11" y="14" width="1" height="1" />
<rect fill="#E0AC69" x="12" y="14" width="1" height="1" />
<rect fill="#E0AC69" x="13" y="14" width="1" height="1" />
<rect fill="#E0AC69" x="14" y="14" width="1" height="1" />
<rect fill="#E0AC69" x="15" y="14" width="1" height="1" />
<rect fill="#E0AC69" x="16" y="14" width="1" height="1" />
<rect fill="#E0AC69" x="17" y="14" width="1" height="1" />
<rect fill="#E0AC69" x="18" y="14" width="1" height="1" />
<rect fill="#E0AC69" x="6" y="13" width="1" height="1" />
<rect fill="#E0AC69" x="7" y="13" width="1" height="1" />
<rect fill="#E0AC69" x="8" y="13" width="1" height="1" />
<rect fill="#E0AC69" x="9" y="13" width="1" height="1" />
<rect fill="#E0AC69" x="10" y="13" width="1" height="1" />
<rect fill="#E0AC69" x="11" y="13" width="1" height="1" />
<rect fill="#E0AC69" x="12" y="13" width="1" height="1" />
<rect fill="#E0AC69" x="13" y="13" width="1" height="1" />
<rect fill="#E0AC69" x="14" y="13" width="1" height="1" />
<rect fill="#E0AC69" x="15" y="13" width="1" height="1" />
<rect fill="#E0AC69" x="16" y="13" width="1" height="1" />
<rect fill="#E0AC69" x="17" y="13" width="1" height="1" />
<rect fill="#E0AC69" x="18" y="13" width="1" height="1" />
<rect fill="#E0AC69" x="6" y="12" width="1" height="1" />
<rect fill="#E0AC69" x="7" y="12" width="1" height="1" />
<rect fill="#E0AC69" x="8" y="12" width="1" height="1" />
<rect fill="#E0AC69" x="9" y="12" width="1" height="1" />
<rect fill="#E0AC69" x="10" y="12" width="1" height="1" />
<rect fill="#E0AC69" x="11" y="12" width="1" height="1" />
<rect fill="#E0AC69" x="12" y="12" width="1" height="1" />
<rect fill="#E0AC69" x="13" y="12" width="1" height="1" />
<rect fill="#E0AC69" x="14" y="12" width="1" height="1" />
<rect fill="#E0AC69" x="15" y="12" width="1" height="1" />
<rect fill="#E0AC69" x="16" y="12" width="1" height="1" />
<rect fill="#E0AC69" x="17" y="12" width="1" height="1" />
<rect fill="#E0AC69" x="18" y="12" width="1" height="1" />
<rect fill="#E0AC69" x="6" y="11" width="1" height="1" />
<rect fill="#E0AC69" x="7" y="11" width="1" height="1" />
<rect fill="#E0AC69" x="8" y="11" width="1" height="1" />
<rect fill="#E0AC69" x="9" y="11" width="1" height="1" />
<rect fill="#E0AC69" x="10" y="11" width="1" height="1" />
<rect fill="#E0AC69" x="11" y="11" width="1" height="1" />
<rect fill="#E0AC69" x="12" y="11" width="1" height="1" />
<rect fill="#E0AC69" x="13" y="11" width="1" height="1" />
<rect fill="#E0AC69" x="14" y="11" width="1" height="1" />
<rect fill="#E0AC69" x="15" y="11" width="1" height="1" />
<rect fill="#E0AC69" x="16" y="11" width="1" height="1" />
<rect fill="#E0AC69" x="17" y="11" width="1" height="1" />
<rect fill="#E0AC69" x="18" y="11" width="1" height="1" />
<rect fill="#E0AC69" x="7" y="10" width="1" height="1" />
<rect fill="#E0AC69" x="8" y="10" width="1" height="1" />
<rect fill="#E0AC69" x="9" y="10" width="1" height="1" />
<rect fill="#E0AC69" x="10" y="10" width="1" height="1" />
<rect fill="#E0AC69" x="11" y="10" width="1" height="1" />
<rect fill="#E0AC69" x="12" y="10" width="1" height="1" />
<rect fill="#E0AC69" x="13" y="10" width="1" height="1" />
<rect fill="#E0AC69" x="14" y="10" width="1" height="1" />
<rect fill="#E0AC69" x="15" y="10" width="1" height="1" />
<rect fill="#E0AC69" x="16" y="10" width="1" height="1" />
<rect fill="#E0AC69" x="17" y="10" width="1" height="1" />
<rect fill="#E0AC69" x="8" y="9" width="1" height="1" />
<rect fill="#E0AC69" x="9" y="9" width="1" height="1" />
<rect fill="#E0AC69" x="10" y="9" width="1" height="1" />
<rect fill="#E0AC69" x="11" y="9" width="1" height="1" />
<rect fill="#E0AC69" x="12" y="9" width="1" height="1" />
<rect fill="#E0AC69" x="13" y="9" width="1" height="1" />
<rect fill="#E0AC69" x="14" y="9" width="1" height="1" />
<rect fill="#E0AC69" x="15" y="9" width="1" height="1" />
<rect fill="#E0AC69" x="16" y="9" width="1" height="1" />
<rect fill="#E0AC69" x="9" y="8" width="1" height="1" />
<rect fill="#E0AC69" x="10" y="8" width="1" height="1" />
<rect fill="#E0AC69" x="11" y="8" width="1" height="1" />
<rect fill="#E0AC69" x="12" y="8" width="1" height="1" />
<rect fill="#E0AC69" x="13" y="8" width="1" height="1" />
<rect fill="#E0AC69" x="14" y="8" width="1" height="1" />
<rect fill="#E0AC69" x="15" y="8" width="1" height="1" />
<rect fill="#E0AC69" x="10" y="7" width="1" height="1" />
<rect fill="#E0AC69" x="11" y="7" width="1" height="1" />
<rect fill="#E0AC69" x="12" y="7" width="1" height="1" />
<rect fill="#E0AC69" x="13" y="7" width="1" height="1" />
<rect fill="#E0AC69" x="14" y="7" width="1" height="1" />
</svg>