<svg xmlns="http://www.w3.org/2000/svg" width="24" height="24"><rect fill="#C6E1F1" x="0" y="0" width="24" height="24" />
<rect fill="#F1C27D" x="8" y="5" width="1" height="1" />
<rect fill="#F1C27D" x="9" y="5" width="1" height="1" />
<rect fill="#F1C27D" x="10" y="5" width="1" height="1" />
<rect fill="#F1C27D" x="11" y="5" width="1" height="1" />
<rect fill="#F1C27D" x="12" y="5" width="1" height="1" />
<rect fill="#F1C27D" x="13" y="5" width="1" height="1" />
<rect fill="#F1C27D" x="14" y="5" width="1" height="1" />
<rect fill="#F1C27D" x="7" y="6" width="1" height="1" />
<rect fill="#F1C27D" x="8" y="6" width="1" height="1" />
<rect fill="#F1C27D" x="9" y="6" width="1" height="1" />
<rect fill="#F1C27D" x="10" y="6" width="1" height="1" />
<rect fill="#F1C27D" x="11" y="6" width="1" height="1" />
<rect fill="#F1C27D" x="12" y="6" width="1" height="1" />
<rect fill="#F1C27D" x="13" y="6" width="1" height="1" />
<rect fill="#F1C27D" x="14" y="6" width="1" height="1" />
<rect fill="#F1C27D" x="15" y="6" width="1" height="1" />
<rect fill="#F1C27D" x="6" y="7" width="1" height="1" />
<rect fill="#F1C27D" x="7" y="7" width="1" height="1" />
<rect fill="#F1C27D" x="8" y="7" width="1" height="1" />
<rect fill="#F1C27D" x="9" y="7" width="1" height="1" />
<rect fill="#F1C27D" x="10" y="7" width="1" height="1" />
<rect fill="#F1C27D" x="11" y="7" width="1" height="1" />
<rect fill="#F1C27D" x="12" y="7" width="1" height="1" />
<rect fill="#F1C27D" x="13" y="7" width="1" height="1" />
<rect fill="#F1C27D" x="14" y="7" width="1" height="1" />
<rect fill="#F1C27D" x="15" y="7" width="1" height="1" />
<rect fill="#F1C27D" x="16" y="7" width="1" height="1" />
<rect fill="#F1C27D" x="6" y="8" width="1" height="1" />
<rect fill="#F1C27D" x="7" y="8" width="1" height="1" />
<rect fill="#F1C27D" x="8" y="8" width="1" height="1" />
<rect fill="#F1C27D" x="9" y="8" width="1" height="1" />
<rect fill="#F1C27D" x="10" y="8" width="1" height="1" />
<rect fill="#F1C27D" x="11" y="8" width="1" height="1" />
<rect fill="#F1C27D" x="12" y="8" width="1" height="1" />
<rect fill="#F1C27D" x="13" y="8" width="1" height="1" />
<rect fill="#F1C27D" x="14" y="8" width="1" height="1" />
<rect fill="#F1C27D" x="15" y="8" width="1" height="1" />
<rect fill="#F1C27D" x="16" y="8" width="1" height="1" />
<rect fill="#F1C27D" x="6" y="9" width="1" height="1" />
<rect fill="#F1C27D" x="7" y="9" width="1" height="1" />
<rect fill="#F1C27D" x="8" y="9" width="1" height="1" />
<rect fill="#F1C27D" x="9" y="9" width="1" height="1" />
<rect fill="#F1C27D" x="10" y="9" width="1" height="1" />
<rect fill="#F1C27D" x="11" y="9" width="1" height="1" />
<rect fill="#F1C27D" x="12" y="9" width="1" height="1" />
<rect fill="#F1C27D" x="13" y="9" width="1" height="1" />
<rect fill="#F1C27D" x="14" y="9" width="1" height="1" />
<rect fill="#F1C27D" x="15" y="9" width="1" height="1" />
<rect fill="#F1C27D" x="16" y="9" width="1" height="1" />
<rect fill="#F1C27D" x="6" y="10" width="1" height="1" />
<rect fill="#F1C27D" x="7" y="10" width="1" height="1" />
<rect fill="#F1C27D" x="8" y="10" width="1" height="1" />
<rect fill="#F1C27D" x="9" y="10" width="1" height="1" />
<rect fill="#F1C27D" x="10" y="10" width="1" height="1" />
<rect fill="#F1C27D" x="11" y="10" width="1" height="1" />
<rect fill="#F1C27D" x="12" y="10" width="1" height="1" />
<rect fill="#F1C27D" x="13" y="10" width="1" height="1" />
<rect fill="#F1C27D" x="14" y="10" width="1" height="1" />
<rect fill="#F1C27D" x="15" y="10" width="1" height="1" />
<rect fill="#F1C27D" x="16" y="10" width="1" height="1" />
<rect fill="#F1C27D" x="6" y="11" width="1" height="1" />
<rect fill="#F1C27D" x="7" y="11" width="1" height="1" />
<rect fill="#F1C27D" x="8" y="11" width="1" height="1" />
<rect fill="#F1C27D" x="9" y="11" width="1" height="1" />
<rect fill="#F1C27D" x="10" y="11" width="1" height="1" />
<rect fill="#F1C27D" x="11" y="11" width="1" height="1" />
<rect fill="#F1C27D" x="12" y="11" width="1" height="1" />
<rect fill="#F1C27D" x="13" y="11" width="1" height="1" />
<rect fill="#F1C27D" x="14" y="11" width="1" height="1" />
<rect fill="#F1C27D" x="15" y="11" width="1" height="1" />
<rect fill="#F1C27D" x="16" y="11" width="1" height="1" />
<rect fill="#F1C27D" x="5" y="12" width="1" height="1" />
<rect fill="#F1C27D" x="6" y="12" width="1" height="1" />
<rect fill="#F1C27D" x="7" y="12" width="1" height="1" />
<rect fill="#F1C27D" x="8" y="12" width="1" height="1" />
<rect fill="#F1C27D" x="9" y="12" width="1" height="1" />
<rect fill="#F1C27D" x="10" y="12" width="1" height="1" />
<rect fill="#F1C27D" x="11" y="12" width="1" height="1" />
<rect fill="#F1C27D" x="12" y="12" width="1" height="1" />
<rect fill="#F1C27D" x="13" y="12" width="1" height="1" />
<rect fill="#F1C27D" x="14" y="12" width="1" height="1" />
<rect fill="#F1C27D" x="15" y="12" width="1" height="1" />
<rect fill="#F1C27D" x="16" y="12" width="1" height="1" />
<rect fill="#F1C27D" x="5" y="13" width="1" height="1" />
<rect fill="#F1C27D" x="6" y="13" width="1" height="1" />
<rect fill="#F1C27D" x="7" y="13" width="1" height="1" />
<rect fill="#F1C27D" x="8" y="13" width="1" height="1" />
<rect fill="#F1C27D" x="9" y="13" width="1" height="1" />
<rect fill="#F1C27D" x="10" y="13" width="1" height="1" />
<rect fill="#F1C27D" x="11" y="13" width="1" height="1" />
<rect fill="#F1C27D" x="12" y="13" width="1" height="1" />
<rect fill="#F1C27D" x="13" y="13" width="1" height="1" />
<rect fill="#F1C27D" x="14" y="13" width="1" height="1" />
<rect fill="#F1C27D" x="15" y="13" width="1" height="1" />
<rect fill="#F1C27D" x="16" y="13" width="1" height="1" />
<rect fill="#F1C27D" x="5" y="14" width="1" height="1" />
<rect fill="#F1C27D" x="6" y="14" width="1" height="1" />
<rect fill="#F1C27D" x="7" y="14" width="1" height="1" />
<rect fill="#F1C27D" x="8" y="14" width="1" height="1" />
<rect fill="#F1C27D" x="9" y="14" width="1" height="1" />
<rect fill="#F1C27D" x="10" y="14" width="1" height="1" />
<rect fill="#F1C27D" x="11" y="14" width="1" height="1" />
<rect fill="#F1C27D" x="12" y="14" width="1" height="1" />
<rect fill="#F1C27D" x="13" y="14" width="1" height="1" />
<rect fill="#F1C27D" x="14" y="14" width="1" height="1" />
<rect fill="#F1C27D" x="15" y="14" width="1" height="1" />
<rect fill="#F1C27D" x="16" y="14" width="1" height="1" />
<rect fill="#F1C27D" x="6" y="15" width="1" height="1" />
<rect fill="#F1C27D" x="7" y="15" width="1" height="1" />
<rect fill="#F1C27D" x="8" y="15" width="1" height="1" />
<rect fill="#F1C27D" x="9" y="15" width="1" height="1" />
<rect fill="#F1C27D" x="10" y="15" width="1" height="1" />
<rect fill="#F1C27D" x="11" y="15" width="1" height="1" />
<rect fill="#F1C27D" x="12" y="15" width="1" height="1" />
<rect fill="#F1C27D" x="13" y="15" width="1" height="1" />
<rect fill="#F1C27D" x="14" y="15" width="1" height="1" />
<rect fill="#F1C27D" x="15" y="15" width="1" height="1" />
<rect fill="#F1C27D" x="16" y="15" width="1" height="1" />
<rect fill="#F1C27D" x="6" y="16" width="1" height="1" />
<rect fill="#F1C27D" x="7" y="16" width="1" height="1" />
<rect fill="#F1C27D" x="8" y="16" width="1" height="1" />
<rect fill="#F1C27D" x="9" y="16" width="1" height="1" />
<rect fill="#F1C27D" x="10" y="16" width="1" height="1" />
<rect fill="#F1C27D" x="11" y="16" width="1" height="1" />
<rect fill="#F1C27D" x="12" y="16" width="1" height="1" />
<rect fill="#F1C27D" x="13" y="16" width="1" height="1" />
<rect fill="#F1C27D" x="14" y="16" width="1" height="1" />
<rect fill="#F1C27D" x="15" y="16" width="1" height="1" />
<rect fill="#F1C27D" x="16" y="16" width="1" height="1" />
<rect fill="#F1C27D" x="6" y="17" width="1" height="1" />
<rect fill="#F1C27D" x="7" y="17" width="1" height="1" />
<rect fill="#F1C27D" x="8" y="17" width="1" height="1" />
<rect fill="#F1C27D" x="9" y="17" width="1" height="1" />
<rect fill="#F1C27D" x="10" y="17" width="1" height="1" />
<rect fill="#F1C27D" x="11" y="17" width="1" height="1" />
<rect fill="#F1C27D" x="12" y="17" width="1" height="1" />
<rect fill="#F1C27D" x="13" y="17" width="1" height="1" />
<rect fill="#F1C27D" x="14" y="17" width="1" height="1" />
<rect fill="#F1C27D" x="15" y="17" width="1" height="1" />
<rect fill="#F1C27D" x="16" y="17" width="1" height="1" />
<rect fill="#F1C27D" x="6" y="18" width="1" height="1" />
<rect fill="#F1C27D" x="7" y="18" width="1" height="1" />
<rect fill="#F1C27D" x="8" y="18" width="1" height="1" />
<rect fill="#F1C27D" x="9" y="18" width="1" height="1" />
<rect fill="#F1C27D" x="10" y="18" width="1" height="1" />
<rect fill="#F1C27D" x="11" y="18" width="1" height="1" />
<rect fill="#F1C27D" x="12" y="18" width="1" height="1" />
<rect fill="#F1C27D" x="13" y="18" width="1" height="1" />
<rect fill="#F1C27D" x="14" y="18" width="1" height="1" />
<rect fill="#F1C27D" x="15" y="18" width="1" height="1" />
<rect fill="#F1C27D" x="16" y="18" width="1" height="1" />
<rect fill="#F1C27D" x="6" y="19" width="1" height="1" />
<rect fill="#F1C27D" x="7" y="19" width="1" height="1" />
<rect fill="#F1C27D" x="8" y="19" width="1" height="1" />
<rect fill="#F1C27D" x="9" y="19" width="1" height="1" />
<rect fill="#F1C27D" x="10" y="19" width="1" height="1" />
<rect fill="#F1C27D" x="11" y="19" width="1" height="1" />
<rect fill="#F1C27D" x="12" y="19" width="1" height="1" />
<rect fill="#F1C27D" x="13" y="19" width="1" height="1" />
<rect fill="#F1C27D" x="14" y="19" width="1" height="1" />
<rect fill="#F1C27D" x="15" y="19" width="1" height="1" />
<rect fill="#F1C27D" x="16" y="19" width="1" height="1" />
<rect fill="#F1C27D" x="6" y="20" width="1" height="1" />
<rect fill="#F1C27D" x="7" y="20" width="1" height="1" />
<rect fill="#F1C27D" x="8" y="20" width="1" height="1" />
<rect fill="#F1C27D" x="9" y="20" width="1" height="1" />
<rect fill="#F1C27D" x="10" y="20" width="1" height="1" />
<rect fill="#F1C27D" x="11" y="20" width="1" height="1" />
<rect fill="#F1C27D" x="12" y="20" width="1" height="1" />
<rect fill="#F1C27D" x="13" y="20" width="1" height="1" />
<rect fill="#F1C27D" x="14" y="20" width="1" height="1" />
<rect fill="#F1C27D" x="15" y="20" width="1" height="1" />
<rect fill="#F1C27D" x="6" y="21" width="1" height="1" />
<rect fill="#F1C27D" x="7" y="21" width="1" height="1" />
<rect fill="#F1C27D" x="8" y="21" width="1" height="1" />
<rect fill="#F1C27D" x="9" y="21" width="1" height="1" />
<rect fill="#F1C27D" x="10" y="21" width="1" height="1" />
<rect fill="#F1C27D" x="11" y="21" width="1" height="1" />
<rect fill="#F1C27D" x="12" y="21" width="1" height="1" />
<rect fill="#F1C27D" x="13" y="21" width="1" height="1" />
<rect fill="#F1C27D" x="14" y="21" width="1" height="1" />
<rect fill="#F1C27D" x="6" y="22" width="1" height="1" />
<rect fill="#F1C27D" x="7" y="22" width="1" height="1" />
<rect fill="#F1C27D" x="8" y="22" width="1" height="1" />
<rect fill="#F1C27D" x="9" y="22" width="1" height="1" />
<rect fill="#F1C27D" x="10" y="22" width="1" height="1" />
<rect fill="#F1C27D" x="6" y="23" width="1" height="1" />
<rect fill="#F1C27D" x="7" y="23" width="1" height="1" />
<rect fill="#F1C27D" x="8" y="23" width="1" height="1" />
<rect fill="#F1C27D" x="9" y="23" width="1" height="1" />
<rect fill="#F1C27D" x="10" y="23" width="1" height="1" />
<rect fill="#000000" x="8" y="5" width="1" height="1" />
<rect fill="#000000" x="9" y="5" width="1" height="1" />
<rect fill="#000000" x="10" y="5" width="1" height="1" />
<rect fill="#000000" x="11" y="5" width="1" height="1" />
<rect fill="#000000" x="12" y="5" width="1" height="1" />
<rect fill="#000000" x="13" y="5" width="1" height="1" />
<rect fill="#000000" x="14" y="5" width="1" height="1" />
<rect fill="#000000" x="7" y="6" width="1" height="1" />
<rect fill="#000000" x="15" y="6" width="1" height="1" />
<rect fill="#000000" x="6" y="7" width="1" height="1" />
<rect fill="#000000" x="16" y="7" width="1" height="1" />
<rect fill="#000000" x="6" y="8" width="1" height="1" />
<rect fill="#000000" x="16" y="8" width="1" height="1" />
<rect fill="#000000" x="6" y="9" width="1" height="1" />
<rect fill="#000000" x="16" y="9" width="1" height="1" />
<rect fill="#000000" x="6" y="10" width="1" height="1" />
<rect fill="#000000" x="16" y="10" width="1" height="1" />
<rect fill="#000000" x="6" y="11" width="1" height="1" />
<rect fill="#000000" x="16" y="11" width="1" height="1" />
<rect fill="#000000" x="5" y="12" width="1" height="1" />
<rect fill="#000000" x="16" y="12" width="1" height="1" />
<rect fill="#000000" x="5" y="13" width="1" height="1" />
<rect fill="#000000" x="16" y="13" width="1" height="1" />
<rect fill="#000000" x="5" y="14" width="1" height="1" />
<rect fill="#000000" x="6" y="14" width="1" height="1" />
<rect fill="#000000" x="16" y="14" width="1" height="1" />
<rect fill="#000000" x="6" y="15" width="1" height="1" />
<rect fill="#000000" x="16" y="15" width="1" height="1" />
<rect fill="#000000" x="6" y="16" width="1" height="1" />
<rect fill="#000000" x="16" y="16" width="1" height="1" />
<rect fill="#000000" x="6" y="17" width="1" height="1" />
<rect fill="#000000" x="16" y="17" width="1" height="1" />
<rect fill="#000000" x="6" y="18" width="1" height="1" />
<rect fill="#000000" x="16" y="18" width="1" height="1" />
<rect fill="#000000" x="6" y="19" width="1" height="1" />
<rect fill="#000000" x="16" y="19" width="1" height="1" />
<rect fill="#000000" x="6" y="20" width="1" height="1" />
<rect fill="#000000" x="15" y="20" width="1" height="1" />
<rect fill="#000000" x="6" y="21" width="1" height="1" />
<rect fill="#000000" x="10" y="21" width="1" height="1" />
<rect fill="#000000" x="11" y="21" width="1" height="1" />
<rect fill="#000000" x="12" y="21" width="1" height="1" />
<rect fill="#000000" x="13" y="21" width="1" height="1" />
<rect fill="#000000" x="14" y="21" width="1" height="1" />
<rect fill="#000000" x="6" y="22" width="1" height="1" />
<rect fill="#000000" x="10" y="22" width="1" height="1" />
<rect fill="#000000" x="6" y="23" width="1" height="1" />
<rect fill="#000000" x="10" y="23" width="1" height="1" />
<rect fill="#000000" x="12" y="15" width="1" height="1" />
<rect fill="#000000" x="13" y="15" width="1" height="1" />
<rect fill="#000000" x="11" y="18" width="1" height="1" />
<rect fill="#000000" x="12" y="18" width="1" height="1" />
<rect fill="#000000" x="13" y="18" width="1" height="1" />
<rect fill="#59EB2D" x="6" y="8" width="1" height="1" />
<rect fill="#59EB2D" x="7" y="8" width="1" height="1" />
<rect fill="#59EB2D" x="8" y="8" width="1" height="1" />
<rect fill="#59EB2D" x="9" y="8" width="1" height="1" />
<rect fill="#59EB2D" x="10" y="8" width="1" height="1" />
<rect fill="#59EB2D" x="11" y="8" width="1" height="1" />
<rect fill="#59EB2D" x="12" y="8" width="1" height="1" />
<rect fill="#59EB2D" x="13" y="8" width="1" height="1" />
<rect fill="#59EB2D" x="14" y="8" width="1" height="1" />
<rect fill="#59EB2D" x="15" y="8" width="1" height="1" />
<rect fill="#59EB2D" x="16" y="8" width="1" height="1" />
<rect fill="#59EB2D" x="17" y="8" width="1" height="1" />
<rect fill="#59EB2D" x="18" y="8" width="1" height="1" />
<rect fill="#59EB2D" x="19" y="8" width="1" height="1" />
<rect fill="#59EB2D" x="6" y="7" width="1" height="1" />
<rect fill="#59EB2D" x="7" y="7" width="1" height="1" />
<rect fill="#59EB2D" x="8" y="7" width="1" height="1" />
<rect fill="#59EB2D" x="9" y="7" width="1" height="1" />
<rect fill="#59EB2D" x="10" y="7" width="1" height="1" />
<rect fill="#59EB2D" x="11" y="7" width="1" height="1" />
<rect fill="#59EB2D" x="12" y="7" width="1" height="1" />
<rect fill="#59EB2D" x="13" y="7" width="1" height="1" />
<rect fill="#59EB2D" x="14" y="7" width="1" height="1" />
<rect fill="#59EB2D" x="15" y="7" width="1" height="1" />
<rect fill="#59EB2D" x="16" y="7" width="1" height="1" />
<rect fill="#59EB2D" x="17" y="7" width="1" height="1" />
<rect fill="#59EB2D" x="18" y="7" width="1" height="1" />
<rect fill="#59EB2D" x="6" y="6" width="1" height="1" />
<rect fill="#59EB2D" x="7" y="6" width="1" height="1" />
<rect fill="#59EB2D" x="8" y="6" width="1" height="1" />
<rect fill="#59EB2D" x="9" y="6" width="1" height="1" />
<rect fill="#59EB2D" x="10" y="6" width="1" height="1" />
<rect fill="#59EB2D" x="11" y="6" width="1" height="1" />
<rect fill="#59EB2D" x="12" y="6" width="1" height="1" />
<rect fill="#59EB2D" x="13" y="6" width="1" height="1" />
<rect fill="#59EB2D" x="14" y="6" width="1" height="1" />
<rect fill="#59EB2D" x="15" y="6" width="1" height="1" />
<rect fill="#59EB2D" x="7" y="5" width="1" height="1" />
<rect fill="#59EB2D" x="8" y="5" width="1" height="1" />
<rect fill="#59EB2D" x="9" y="5" width="1" height="1" />
<rect fill="#59EB2D" x="10" y="5" width="1" height="1" />
<rect fill="#59EB2D" x="11" y="5" width="1" height="1" />
<rect fill="#59EB2D" x="12" y="5" width="1" height="1" />
<rect fill="#59EB2D" x="13" y="5" width="1" height="1" />
<rect fill="#59EB2D" x="14" y="5" width="1" height="1" />
<rect fill="#59EB2D" x="15" y="5" width="1" height="1" />
<rect fill="#59EB2D" x="8" y="4" width="1" height="1" />
<rect fill="#59EB2D" x="9" y="4" width="1" height="1" />
<rect fill="#59EB2D" x="10" y="4" width="1" height="1" />
<rect fill="#59EB2D" x="11" y="4" width="1" height="1" />
<rect fill="#59EB2D" x="12" y="4" width="1" height="1" />
<rect fill="#59EB2D" x="13" y="4" width="1" height="1" />
<rect fill="#59EB2D" x="14" y="4" width="1" height="1" />
<rect fill="#7718BA" x="5" y="12" width="1" height="1" />
<rect fill="#7718BA" x="6" y="12" width="1" height="1" />
<rect fill="#7718BA" x="7" y="12" width="1" height="1" />
<rect fill="#7718BA" x="8" y="12" width="1" height="1" />
<rect fill="#7718BA" x="9" y="12" width="1" height="1" />
<rect fill="#7718BA" x="10" y="12" width="1" height="1" />
<rect fill="#7718BA" x="11" y="12" width="1" height="1" />
<rect fill="#7718BA" x="12" y="12" width="1" height="1" />
<rect fill="#7718BA" x="13" y="12" width="1" height="1" />
<rect fill="#7718BA" x="14" y="12" width="1" height="1" />
<rect fill="#7718BA" x="15" y="12" width="1" height="1" />
<rect fill="#7718BA" x="16" y="12" width="1" height="1" />
<rect fill="#7718BA" x="17" y="12" width="1" height="1" />
<rect fill="#7718BA" x="8" y="13" width="1" height="1" />
<rect fill="#7718BA" x="9" y="13" width="1" height="1" />
<rect fill="#7718BA" x="10" y="13" width="1" height="1" />
<rect fill="#7718BA" x="11" y="13" width="1" height="1" />
<rect fill="#7718BA" x="14" y="13" width="1" height="1" />
<rect fill="#7718BA" x="15" y="13" width="1" height="1" />
<rect fill="#7718BA" x="16" y="13" width="1" height="1" />
<rect fill="#7718BA" x="17" y="13" width="1" height="1" />
<rect fill="#7718BA" x="9" y="14" width="1" height="1" />
<rect fill="#7718BA" x="10" y="14" width="1" height="1" />
<rect fill="#7718BA" x="15" y="14" width="1" height="1" />
<rect fill="#7718BA" x="16" y="14" width="1" height="1" />
</svg>